# xmcd
#
# Track frame offsets:
#	150
#	17690
#	36370
#	50077
#	63457
#	78735
#	94397
#	109400
#	123630
#	140445
#
# Disc length: 2104 seconds
#
# Revision: 0
# Processed by: cddbd v1.5.1PL0 Copyright (c) Steve Scherf et al.
# Submitted via: dBpowerAMP V4.0
#
DISCID=9608360a
DTITLE=Neto Fagundes - Gauchesco e Brasileiro
DYEAR=2004
DGENRE=Gauchesca
TTITLE0=Origens
TTITLE1=Canto Alegretense
TTITLE2=Silueta Porteña
TTITLE3=Gaita de Botão
TTITLE4=Vaneirinha
TTITLE5=Milonga de Contrabando
TTITLE6=Brasilhana
TTITLE7=Refazendo os Planos
TTITLE8=João Cruzeira
TTITLE9=Genipabú
EXTD=
EXTT0=
EXTT1=
EXTT2=
EXTT3=
EXTT4=
EXTT5=
EXTT6=
EXTT7=
EXTT8=
EXTT9=
PLAYORDER=
